<mxfile host="65bd71144e" pages="6">
    <diagram id="msKyM3QTYCGkHJKbw-Ij" name="DB_Arch">
        <mxGraphModel dx="1169" dy="1361" grid="1" gridSize="10" guides="0" tooltips="1" connect="1" arrows="1" fold="1" page="1" pageScale="1" pageWidth="1169" pageHeight="827" math="0" shadow="0">
            <root>
                <mxCell id="0"/>
                <mxCell id="1" parent="0"/>
                <mxCell id="SCHBTk89pM5uPsMTtURv-64" style="edgeStyle=orthogonalEdgeStyle;rounded=1;orthogonalLoop=1;jettySize=auto;html=1;startArrow=none;startFill=0;endArrow=doubleBlock;endFill=0;strokeColor=#FFFFFF;" parent="1" source="4jjwoe7JuIm5MmQz-8s8-2" target="rAY3adNcIp4noNA6YQVJ-1" edge="1">
                    <mxGeometry relative="1" as="geometry">
                        <Array as="points">
                            <mxPoint x="510" y="80"/>
                            <mxPoint x="510" y="80"/>
                        </Array>
                    </mxGeometry>
                </mxCell>
                <mxCell id="4jjwoe7JuIm5MmQz-8s8-2" value="Users" style="rounded=0;whiteSpace=wrap;html=1;fillColor=#4D4D4D;fontStyle=1" parent="1" vertex="1">
                    <mxGeometry x="39.99999999999994" y="39.99999999999996" width="170" height="60" as="geometry"/>
                </mxCell>
                <mxCell id="4jjwoe7JuIm5MmQz-8s8-6" value="(PK) id: int" style="rounded=0;whiteSpace=wrap;html=1;" parent="1" vertex="1">
                    <mxGeometry x="39.99999999999994" y="109.99999999999994" width="170" height="30" as="geometry"/>
                </mxCell>
                <mxCell id="4jjwoe7JuIm5MmQz-8s8-7" value="nickname: str" style="rounded=0;whiteSpace=wrap;html=1;strokeColor=#FFFF66;" parent="1" vertex="1">
                    <mxGeometry x="39.99999999999994" y="149.99999999999994" width="170" height="30" as="geometry"/>
                </mxCell>
                <mxCell id="SCHBTk89pM5uPsMTtURv-54" style="edgeStyle=orthogonalEdgeStyle;rounded=1;orthogonalLoop=1;jettySize=auto;html=1;startArrow=none;startFill=0;endArrow=doubleBlock;endFill=0;" parent="1" source="4jjwoe7JuIm5MmQz-8s8-13" target="SCHBTk89pM5uPsMTtURv-42" edge="1">
                    <mxGeometry relative="1" as="geometry">
                        <Array as="points">
                            <mxPoint x="240" y="280"/>
                            <mxPoint x="240" y="340"/>
                        </Array>
                    </mxGeometry>
                </mxCell>
                <mxCell id="4jjwoe7JuIm5MmQz-8s8-13" value="Game_Mode" style="rounded=0;whiteSpace=wrap;html=1;fillColor=#4D4D4D;fontStyle=1" parent="1" vertex="1">
                    <mxGeometry x="40" y="250.2" width="170" height="60" as="geometry"/>
                </mxCell>
                <mxCell id="4jjwoe7JuIm5MmQz-8s8-16" value="name: str" style="rounded=0;whiteSpace=wrap;html=1;" parent="1" vertex="1">
                    <mxGeometry x="40" y="520.2" width="170" height="30" as="geometry"/>
                </mxCell>
                <mxCell id="SCHBTk89pM5uPsMTtURv-55" style="edgeStyle=orthogonalEdgeStyle;rounded=1;orthogonalLoop=1;jettySize=auto;html=1;startArrow=none;startFill=0;endArrow=doubleBlock;endFill=0;" parent="1" target="SCHBTk89pM5uPsMTtURv-42" edge="1">
                    <mxGeometry relative="1" as="geometry">
                        <Array as="points">
                            <mxPoint x="240" y="440"/>
                            <mxPoint x="240" y="360"/>
                        </Array>
                        <mxPoint x="210" y="440.14285714285734" as="sourcePoint"/>
                    </mxGeometry>
                </mxCell>
                <mxCell id="4jjwoe7JuIm5MmQz-8s8-18" value="BO_Types" style="rounded=0;whiteSpace=wrap;html=1;fillColor=#4D4D4D;fontStyle=1" parent="1" vertex="1">
                    <mxGeometry x="40" y="410.2000000000001" width="170" height="60" as="geometry"/>
                </mxCell>
                <mxCell id="4jjwoe7JuIm5MmQz-8s8-23" value="(PK) id: int" style="rounded=0;whiteSpace=wrap;html=1;strokeColor=#FF66FF;" parent="1" vertex="1">
                    <mxGeometry x="40" y="320.2" width="170" height="30" as="geometry"/>
                </mxCell>
                <mxCell id="4jjwoe7JuIm5MmQz-8s8-24" value="name: str" style="rounded=0;whiteSpace=wrap;html=1;" parent="1" vertex="1">
                    <mxGeometry x="40" y="360.2" width="170" height="30" as="geometry"/>
                </mxCell>
                <mxCell id="4jjwoe7JuIm5MmQz-8s8-25" value="(PK) id: int" style="rounded=0;whiteSpace=wrap;html=1;strokeColor=#FF66FF;" parent="1" vertex="1">
                    <mxGeometry x="40" y="480.19999999999993" width="170" height="30" as="geometry"/>
                </mxCell>
                <mxCell id="4jjwoe7JuIm5MmQz-8s8-49" value="User Input" style="rounded=0;whiteSpace=wrap;html=1;strokeColor=#FFFF66;" parent="1" vertex="1">
                    <mxGeometry x="28" y="770" width="170" height="30" as="geometry"/>
                </mxCell>
                <mxCell id="4jjwoe7JuIm5MmQz-8s8-50" value="Auto Field" style="rounded=0;whiteSpace=wrap;html=1;strokeColor=#FF66FF;" parent="1" vertex="1">
                    <mxGeometry x="210" y="770" width="170" height="30" as="geometry"/>
                </mxCell>
                <mxCell id="7G6EMqLsNSL37DhbVlC9-19" style="edgeStyle=orthogonalEdgeStyle;rounded=1;orthogonalLoop=1;jettySize=auto;html=1;endArrow=doubleBlock;endFill=0;" parent="1" source="4jjwoe7JuIm5MmQz-8s8-51" target="rAY3adNcIp4noNA6YQVJ-1" edge="1">
                    <mxGeometry relative="1" as="geometry">
                        <Array as="points">
                            <mxPoint x="375" y="100"/>
                        </Array>
                    </mxGeometry>
                </mxCell>
                <mxCell id="4jjwoe7JuIm5MmQz-8s8-51" value="Teams" style="rounded=0;whiteSpace=wrap;html=1;fillColor=#4D4D4D;fontStyle=1" parent="1" vertex="1">
                    <mxGeometry x="290" y="120" width="170" height="60" as="geometry"/>
                </mxCell>
                <mxCell id="4jjwoe7JuIm5MmQz-8s8-54" value="name: str" style="rounded=0;whiteSpace=wrap;html=1;strokeColor=#FFFF66;" parent="1" vertex="1">
                    <mxGeometry x="290" y="230" width="170" height="30" as="geometry"/>
                </mxCell>
                <mxCell id="4jjwoe7JuIm5MmQz-8s8-55" value="(PK) id: int" style="rounded=0;whiteSpace=wrap;html=1;" parent="1" vertex="1">
                    <mxGeometry x="290" y="190" width="170" height="30" as="geometry"/>
                </mxCell>
                <mxCell id="4jjwoe7JuIm5MmQz-8s8-60" value="&lt;font style=&quot;font-size: 24px&quot;&gt;Legend&lt;/font&gt;" style="text;html=1;strokeColor=none;fillColor=none;align=left;verticalAlign=middle;whiteSpace=wrap;rounded=0;" parent="1" vertex="1">
                    <mxGeometry x="29" y="720" width="92" height="40" as="geometry"/>
                </mxCell>
                <mxCell id="4jjwoe7JuIm5MmQz-8s8-62" value="" style="endArrow=none;html=1;rounded=0;fontSize=24;exitX=0;exitY=1;exitDx=0;exitDy=0;" parent="1" source="4jjwoe7JuIm5MmQz-8s8-60" edge="1">
                    <mxGeometry width="50" height="50" relative="1" as="geometry">
                        <mxPoint x="771" y="600" as="sourcePoint"/>
                        <mxPoint x="1141" y="760" as="targetPoint"/>
                    </mxGeometry>
                </mxCell>
                <mxCell id="rAY3adNcIp4noNA6YQVJ-1" value="Results" style="rounded=0;whiteSpace=wrap;html=1;fillColor=#4D4D4D;fontStyle=1" parent="1" vertex="1">
                    <mxGeometry x="541" y="70" width="170" height="60" as="geometry"/>
                </mxCell>
                <mxCell id="Pdu6vEGgEKiIDiA17Eyo-1" value="Вводится пользователем через форму" style="text;html=1;strokeColor=none;fillColor=none;align=left;verticalAlign=middle;whiteSpace=wrap;rounded=0;shadow=0;glass=0;labelBorderColor=none;fontSize=8;fontColor=#878787;" parent="1" vertex="1">
                    <mxGeometry x="28" y="800" width="170" height="20" as="geometry"/>
                </mxCell>
                <mxCell id="Pdu6vEGgEKiIDiA17Eyo-2" value="Автоматически генерируется на бэке" style="text;html=1;strokeColor=none;fillColor=none;align=left;verticalAlign=middle;whiteSpace=wrap;rounded=0;shadow=0;glass=0;labelBorderColor=none;fontSize=8;fontColor=#878787;" parent="1" vertex="1">
                    <mxGeometry x="210" y="800" width="170" height="20" as="geometry"/>
                </mxCell>
                <mxCell id="qCTBJWdA8ET0f0xkRoKU-1" value="Virtual Field" style="rounded=0;whiteSpace=wrap;html=1;strokeColor=#006600;" parent="1" vertex="1">
                    <mxGeometry x="391.94" y="770" width="170" height="30" as="geometry"/>
                </mxCell>
                <mxCell id="qCTBJWdA8ET0f0xkRoKU-2" value="Мнимые поля на основе связи SQLAlchemy" style="text;html=1;strokeColor=none;fillColor=none;align=left;verticalAlign=middle;whiteSpace=wrap;rounded=0;shadow=0;glass=0;labelBorderColor=none;fontSize=8;fontColor=#878787;" parent="1" vertex="1">
                    <mxGeometry x="391.94" y="800" width="170" height="20" as="geometry"/>
                </mxCell>
                <mxCell id="SCHBTk89pM5uPsMTtURv-70" style="edgeStyle=orthogonalEdgeStyle;rounded=1;orthogonalLoop=1;jettySize=auto;html=1;startArrow=none;startFill=0;endArrow=doubleBlock;endFill=0;strokeColor=#FFFFFF;" parent="1" source="JbDyKo0zZpgBaeJ1JBka-1" target="SCHBTk89pM5uPsMTtURv-67" edge="1">
                    <mxGeometry relative="1" as="geometry"/>
                </mxCell>
                <mxCell id="JbDyKo0zZpgBaeJ1JBka-1" value="Objects" style="rounded=0;whiteSpace=wrap;html=1;fillColor=#4D4D4D;fontStyle=1;glass=0;shadow=0;" parent="1" vertex="1">
                    <mxGeometry x="909" y="460" width="170" height="60" as="geometry"/>
                </mxCell>
                <mxCell id="JbDyKo0zZpgBaeJ1JBka-3" value="name: str" style="rounded=0;whiteSpace=wrap;html=1;" parent="1" vertex="1">
                    <mxGeometry x="909" y="569.8199999999999" width="170" height="30" as="geometry"/>
                </mxCell>
                <mxCell id="JbDyKo0zZpgBaeJ1JBka-4" value="image_url: str" style="rounded=0;whiteSpace=wrap;html=1;" parent="1" vertex="1">
                    <mxGeometry x="909" y="649.8200000000002" width="170" height="30" as="geometry"/>
                </mxCell>
                <mxCell id="JbDyKo0zZpgBaeJ1JBka-5" value="short_name: str" style="rounded=0;whiteSpace=wrap;html=1;" parent="1" vertex="1">
                    <mxGeometry x="909" y="609.8200000000002" width="170" height="30" as="geometry"/>
                </mxCell>
                <mxCell id="JbDyKo0zZpgBaeJ1JBka-6" value="(FK) type: int" style="rounded=0;whiteSpace=wrap;html=1;" parent="1" vertex="1">
                    <mxGeometry x="909" y="689.8200000000002" width="170" height="30" as="geometry"/>
                </mxCell>
                <mxCell id="JbDyKo0zZpgBaeJ1JBka-8" value="(PK) id: int" style="rounded=0;whiteSpace=wrap;html=1;strokeColor=#FF66FF;" parent="1" vertex="1">
                    <mxGeometry x="909" y="529.6200000000001" width="170" height="30" as="geometry"/>
                </mxCell>
                <mxCell id="SCHBTk89pM5uPsMTtURv-61" style="edgeStyle=orthogonalEdgeStyle;rounded=1;orthogonalLoop=1;jettySize=auto;html=1;startArrow=none;startFill=0;endArrow=doubleBlock;endFill=0;" parent="1" source="JbDyKo0zZpgBaeJ1JBka-10" target="SCHBTk89pM5uPsMTtURv-42" edge="1">
                    <mxGeometry relative="1" as="geometry">
                        <Array as="points">
                            <mxPoint x="260" y="600"/>
                            <mxPoint x="260" y="380"/>
                        </Array>
                    </mxGeometry>
                </mxCell>
                <mxCell id="JbDyKo0zZpgBaeJ1JBka-10" value="Actions" style="rounded=0;whiteSpace=wrap;html=1;fillColor=#4D4D4D;fontStyle=1;glass=0;shadow=0;" parent="1" vertex="1">
                    <mxGeometry x="40" y="570" width="170" height="60" as="geometry"/>
                </mxCell>
                <mxCell id="JbDyKo0zZpgBaeJ1JBka-11" value="name: str" style="rounded=0;whiteSpace=wrap;html=1;" parent="1" vertex="1">
                    <mxGeometry x="40" y="679.8199999999999" width="170" height="30" as="geometry"/>
                </mxCell>
                <mxCell id="JbDyKo0zZpgBaeJ1JBka-12" value="(PK) id: int" style="rounded=0;whiteSpace=wrap;html=1;strokeColor=#FF66FF;" parent="1" vertex="1">
                    <mxGeometry x="40" y="640.5700000000002" width="170" height="30" as="geometry"/>
                </mxCell>
                <mxCell id="SCHBTk89pM5uPsMTtURv-66" style="edgeStyle=orthogonalEdgeStyle;rounded=1;orthogonalLoop=1;jettySize=auto;html=1;startArrow=none;startFill=0;endArrow=doubleBlock;endFill=0;strokeColor=#FFFFFF;" parent="1" source="JbDyKo0zZpgBaeJ1JBka-24" target="JbDyKo0zZpgBaeJ1JBka-1" edge="1">
                    <mxGeometry relative="1" as="geometry">
                        <Array as="points">
                            <mxPoint x="1119" y="320"/>
                            <mxPoint x="1119" y="490"/>
                        </Array>
                    </mxGeometry>
                </mxCell>
                <mxCell id="JbDyKo0zZpgBaeJ1JBka-24" value="Object_Types" style="rounded=0;whiteSpace=wrap;html=1;fillColor=#4D4D4D;fontStyle=1;glass=0;shadow=0;" parent="1" vertex="1">
                    <mxGeometry x="909" y="290" width="170" height="60" as="geometry"/>
                </mxCell>
                <mxCell id="JbDyKo0zZpgBaeJ1JBka-25" value="name: str" style="rounded=0;whiteSpace=wrap;html=1;" parent="1" vertex="1">
                    <mxGeometry x="909" y="400" width="170" height="30" as="geometry"/>
                </mxCell>
                <mxCell id="JbDyKo0zZpgBaeJ1JBka-26" value="(PK) id: int" style="rounded=0;whiteSpace=wrap;html=1;strokeColor=#FF66FF;" parent="1" vertex="1">
                    <mxGeometry x="909" y="360.0000000000002" width="170" height="30" as="geometry"/>
                </mxCell>
                <mxCell id="wZGH_QOkmGSGh30uLuTO-182" value="match_type" style="edgeStyle=none;orthogonalLoop=1;jettySize=auto;html=1;fontSize=12;fontColor=#FFFFFF;startArrow=none;startFill=0;endArrow=classic;endFill=1;" parent="1" source="wZGH_QOkmGSGh30uLuTO-154" target="wZGH_QOkmGSGh30uLuTO-163" edge="1">
                    <mxGeometry relative="1" as="geometry"/>
                </mxCell>
                <mxCell id="wZGH_QOkmGSGh30uLuTO-154" value="Match_Types" style="rounded=0;whiteSpace=wrap;html=1;fillColor=#4D4D4D;fontStyle=1" parent="1" vertex="1">
                    <mxGeometry x="250.0000000000001" y="-230" width="170" height="60" as="geometry"/>
                </mxCell>
                <mxCell id="wZGH_QOkmGSGh30uLuTO-173" value="bo_type" style="edgeStyle=none;orthogonalLoop=1;jettySize=auto;html=1;fontSize=12;fontColor=#FFFFFF;startArrow=none;startFill=0;endArrow=classic;endFill=1;" parent="1" source="wZGH_QOkmGSGh30uLuTO-155" target="wZGH_QOkmGSGh30uLuTO-163" edge="1">
                    <mxGeometry relative="1" as="geometry"/>
                </mxCell>
                <mxCell id="wZGH_QOkmGSGh30uLuTO-155" value="BO_Types" style="rounded=0;whiteSpace=wrap;html=1;fillColor=#4D4D4D;fontStyle=1" parent="1" vertex="1">
                    <mxGeometry x="250.0000000000001" y="-300" width="170" height="60" as="geometry"/>
                </mxCell>
                <mxCell id="wZGH_QOkmGSGh30uLuTO-175" value="object_id" style="edgeStyle=none;orthogonalLoop=1;jettySize=auto;html=1;fontSize=12;fontColor=#FFFFFF;startArrow=none;startFill=0;endArrow=classic;endFill=1;" parent="1" source="wZGH_QOkmGSGh30uLuTO-156" target="wZGH_QOkmGSGh30uLuTO-162" edge="1">
                    <mxGeometry relative="1" as="geometry"/>
                </mxCell>
                <mxCell id="wZGH_QOkmGSGh30uLuTO-156" value="Objects" style="rounded=0;whiteSpace=wrap;html=1;fillColor=#4D4D4D;fontStyle=1;glass=0;shadow=0;" parent="1" vertex="1">
                    <mxGeometry x="250.00000000000006" y="-540" width="170" height="60" as="geometry"/>
                </mxCell>
                <mxCell id="wZGH_QOkmGSGh30uLuTO-174" value="current_action_id" style="edgeStyle=none;orthogonalLoop=1;jettySize=auto;html=1;fontSize=12;fontColor=#FFFFFF;startArrow=none;startFill=0;endArrow=classic;endFill=1;" parent="1" source="wZGH_QOkmGSGh30uLuTO-157" target="wZGH_QOkmGSGh30uLuTO-163" edge="1">
                    <mxGeometry relative="1" as="geometry"/>
                </mxCell>
                <mxCell id="wZGH_QOkmGSGh30uLuTO-157" value="Actions" style="rounded=0;whiteSpace=wrap;html=1;fillColor=#4D4D4D;fontStyle=1;glass=0;shadow=0;" parent="1" vertex="1">
                    <mxGeometry x="250.0000000000001" y="-370" width="170" height="60" as="geometry"/>
                </mxCell>
                <mxCell id="wZGH_QOkmGSGh30uLuTO-176" value="type" style="edgeStyle=none;orthogonalLoop=1;jettySize=auto;html=1;fontSize=12;fontColor=#FFFFFF;startArrow=none;startFill=0;endArrow=classic;endFill=1;" parent="1" source="wZGH_QOkmGSGh30uLuTO-158" target="wZGH_QOkmGSGh30uLuTO-156" edge="1">
                    <mxGeometry relative="1" as="geometry"/>
                </mxCell>
                <mxCell id="wZGH_QOkmGSGh30uLuTO-158" value="Object_Types" style="rounded=0;whiteSpace=wrap;html=1;fillColor=#4D4D4D;fontStyle=1;glass=0;shadow=0;" parent="1" vertex="1">
                    <mxGeometry x="250.00000000000009" y="-438.00000000000006" width="170" height="60" as="geometry"/>
                </mxCell>
                <mxCell id="wZGH_QOkmGSGh30uLuTO-185" value="team_id" style="orthogonalLoop=1;jettySize=auto;html=1;fontSize=12;fontColor=#FFFFFF;startArrow=none;startFill=0;endArrow=classic;endFill=1;strokeColor=default;rounded=1;jumpStyle=none;elbow=vertical;" parent="1" source="wZGH_QOkmGSGh30uLuTO-159" target="wZGH_QOkmGSGh30uLuTO-162" edge="1">
                    <mxGeometry relative="1" as="geometry">
                        <mxPoint x="885.0000000000005" y="-370" as="targetPoint"/>
                    </mxGeometry>
                </mxCell>
                <mxCell id="wZGH_QOkmGSGh30uLuTO-159" value="Teams" style="rounded=0;whiteSpace=wrap;html=1;fillColor=#4D4D4D;fontStyle=1" parent="1" vertex="1">
                    <mxGeometry x="250.0000000000001" y="-610" width="170" height="60" as="geometry"/>
                </mxCell>
                <mxCell id="vuVQOKLUfzYMfMgCxyHa-4" value="user_id" style="edgeStyle=none;rounded=0;orthogonalLoop=1;jettySize=auto;html=1;entryX=0.886;entryY=1;entryDx=0;entryDy=0;entryPerimeter=0;fontColor=#FFFFFF;endArrow=classic;endFill=1;strokeColor=#FFFFFF;" parent="1" source="wZGH_QOkmGSGh30uLuTO-160" target="vuVQOKLUfzYMfMgCxyHa-1" edge="1">
                    <mxGeometry relative="1" as="geometry"/>
                </mxCell>
                <mxCell id="wZGH_QOkmGSGh30uLuTO-160" value="Users" style="rounded=0;whiteSpace=wrap;html=1;fillColor=#3A3A91;fontStyle=1;gradientColor=none;" parent="1" vertex="1">
                    <mxGeometry x="750" y="-300" width="170" height="60" as="geometry"/>
                </mxCell>
                <mxCell id="wZGH_QOkmGSGh30uLuTO-162" value="Results" style="rounded=0;whiteSpace=wrap;html=1;fillColor=#3A3A91;fontStyle=1;gradientColor=none;" parent="1" vertex="1">
                    <mxGeometry x="660" y="-580" width="170" height="60" as="geometry"/>
                </mxCell>
                <mxCell id="SCHBTk89pM5uPsMTtURv-63" value="room_id" style="edgeStyle=none;rounded=1;orthogonalLoop=1;jettySize=auto;html=1;startArrow=none;startFill=0;endArrow=classic;endFill=1;strokeColor=#FFFFFF;entryX=0.07;entryY=0.992;entryDx=0;entryDy=0;entryPerimeter=0;" parent="1" source="wZGH_QOkmGSGh30uLuTO-163" target="vuVQOKLUfzYMfMgCxyHa-1" edge="1">
                    <mxGeometry relative="1" as="geometry"/>
                </mxCell>
                <mxCell id="wZGH_QOkmGSGh30uLuTO-163" value="Rooms" style="rounded=0;whiteSpace=wrap;html=1;fillColor=#3A3A91;fontStyle=1;gradientColor=none;" parent="1" vertex="1">
                    <mxGeometry x="570" y="-300.0000000000001" width="170" height="60" as="geometry"/>
                </mxCell>
                <mxCell id="wZGH_QOkmGSGh30uLuTO-183" value="Simple relationship schema" style="text;html=1;strokeColor=none;fillColor=none;align=left;verticalAlign=middle;whiteSpace=wrap;rounded=0;fontSize=50;fontColor=#FFFFFF;fontStyle=1" parent="1" vertex="1">
                    <mxGeometry x="250" y="-760" width="680" height="80" as="geometry"/>
                </mxCell>
                <mxCell id="wZGH_QOkmGSGh30uLuTO-191" value="REQUEST" style="html=1;shadow=0;dashed=0;align=center;verticalAlign=middle;shape=mxgraph.arrows2.arrow;dy=0;dx=30;notch=30;fontSize=12;fontColor=#FFFFFF;strokeColor=#FFFF66;strokeWidth=5;direction=west;" parent="1" vertex="1">
                    <mxGeometry x="930" y="-300" width="131" height="60" as="geometry"/>
                </mxCell>
                <mxCell id="wZGH_QOkmGSGh30uLuTO-222" value="&lt;font style=&quot;font-size: 24px&quot;&gt;Legend&lt;/font&gt;" style="text;html=1;strokeColor=none;fillColor=none;align=left;verticalAlign=middle;whiteSpace=wrap;rounded=0;" parent="1" vertex="1">
                    <mxGeometry x="30" y="-110" width="92" height="40" as="geometry"/>
                </mxCell>
                <mxCell id="wZGH_QOkmGSGh30uLuTO-223" value="" style="endArrow=none;html=1;rounded=0;fontSize=24;exitX=0;exitY=1;exitDx=0;exitDy=0;" parent="1" source="wZGH_QOkmGSGh30uLuTO-222" edge="1">
                    <mxGeometry width="50" height="50" relative="1" as="geometry">
                        <mxPoint x="772" y="-230" as="sourcePoint"/>
                        <mxPoint x="1142" y="-70" as="targetPoint"/>
                    </mxGeometry>
                </mxCell>
                <mxCell id="wZGH_QOkmGSGh30uLuTO-224" value="Заполняются по запросу пользователя" style="text;html=1;strokeColor=none;fillColor=none;align=left;verticalAlign=middle;whiteSpace=wrap;rounded=0;shadow=0;glass=0;labelBorderColor=none;fontSize=8;fontColor=#878787;" parent="1" vertex="1">
                    <mxGeometry x="29" y="-30" width="170" height="20" as="geometry"/>
                </mxCell>
                <mxCell id="wZGH_QOkmGSGh30uLuTO-225" value="Заполняются администратором" style="text;html=1;strokeColor=none;fillColor=none;align=left;verticalAlign=middle;whiteSpace=wrap;rounded=0;shadow=0;glass=0;labelBorderColor=none;fontSize=8;fontColor=#878787;" parent="1" vertex="1">
                    <mxGeometry x="211" y="-30" width="170" height="20" as="geometry"/>
                </mxCell>
                <mxCell id="wZGH_QOkmGSGh30uLuTO-228" value="Dynamic tables" style="rounded=0;whiteSpace=wrap;html=1;fillColor=#3A3A91;fontStyle=1;gradientColor=none;" parent="1" vertex="1">
                    <mxGeometry x="30" y="-60" width="170" height="30" as="geometry"/>
                </mxCell>
                <mxCell id="wZGH_QOkmGSGh30uLuTO-229" value="Static tables" style="rounded=0;whiteSpace=wrap;html=1;fillColor=#4D4D4D;fontStyle=1;glass=0;shadow=0;" parent="1" vertex="1">
                    <mxGeometry x="210" y="-60" width="170" height="30" as="geometry"/>
                </mxCell>
                <mxCell id="wZGH_QOkmGSGh30uLuTO-230" value="&lt;div style=&quot;&quot;&gt;&lt;span&gt;Extended&lt;/span&gt;&lt;/div&gt;relationship schema" style="text;html=1;strokeColor=none;fillColor=none;align=left;verticalAlign=middle;whiteSpace=wrap;rounded=0;fontSize=50;fontColor=#FFFFFF;fontStyle=1" parent="1" vertex="1">
                    <mxGeometry x="800" y="70" width="290" height="160" as="geometry"/>
                </mxCell>
                <mxCell id="SCHBTk89pM5uPsMTtURv-58" style="edgeStyle=orthogonalEdgeStyle;rounded=1;orthogonalLoop=1;jettySize=auto;html=1;startArrow=none;startFill=0;endArrow=doubleBlock;endFill=0;strokeColor=#FFFFFF;" parent="1" source="SCHBTk89pM5uPsMTtURv-42" target="rAY3adNcIp4noNA6YQVJ-1" edge="1">
                    <mxGeometry relative="1" as="geometry">
                        <Array as="points">
                            <mxPoint x="500" y="360"/>
                            <mxPoint x="500" y="120"/>
                        </Array>
                    </mxGeometry>
                </mxCell>
                <mxCell id="SCHBTk89pM5uPsMTtURv-42" value="Rooms" style="rounded=0;whiteSpace=wrap;html=1;fillColor=#4D4D4D;fontStyle=1" parent="1" vertex="1">
                    <mxGeometry x="291" y="330" width="170" height="60" as="geometry"/>
                </mxCell>
                <mxCell id="SCHBTk89pM5uPsMTtURv-67" value="Current_Season" style="rounded=0;whiteSpace=wrap;html=1;fillColor=#4D4D4D;fontStyle=1;glass=0;shadow=0;" parent="1" vertex="1">
                    <mxGeometry x="680" y="580" width="170" height="60" as="geometry"/>
                </mxCell>
                <mxCell id="SCHBTk89pM5uPsMTtURv-68" value="(FK) object_id: id" style="rounded=0;whiteSpace=wrap;html=1;" parent="1" vertex="1">
                    <mxGeometry x="680" y="690" width="170" height="30" as="geometry"/>
                </mxCell>
                <mxCell id="SCHBTk89pM5uPsMTtURv-69" value="(PK) id: int" style="rounded=0;whiteSpace=wrap;html=1;strokeColor=#FF66FF;" parent="1" vertex="1">
                    <mxGeometry x="680" y="650.0000000000002" width="170" height="30" as="geometry"/>
                </mxCell>
                <mxCell id="SCHBTk89pM5uPsMTtURv-71" value="room_uuid: uuid" style="rounded=0;whiteSpace=wrap;html=1;strokeColor=#FF66FF;" parent="1" vertex="1">
                    <mxGeometry x="290" y="439.99999999999994" width="170" height="30" as="geometry"/>
                </mxCell>
                <mxCell id="SCHBTk89pM5uPsMTtURv-72" value="(FK) game_mode_id: int" style="rounded=0;whiteSpace=wrap;html=1;strokeColor=#FFFF66;" parent="1" vertex="1">
                    <mxGeometry x="290" y="479.99999999999994" width="170" height="30" as="geometry"/>
                </mxCell>
                <mxCell id="SCHBTk89pM5uPsMTtURv-73" value="(FK) bo_type_id: int" style="rounded=0;whiteSpace=wrap;html=1;strokeColor=#FFFF66;" parent="1" vertex="1">
                    <mxGeometry x="290" y="520" width="170" height="30" as="geometry"/>
                </mxCell>
                <mxCell id="SCHBTk89pM5uPsMTtURv-74" value="seed: int" style="rounded=0;whiteSpace=wrap;html=1;strokeColor=#FFFF66;" parent="1" vertex="1">
                    <mxGeometry x="291" y="560" width="170" height="30" as="geometry"/>
                </mxCell>
                <mxCell id="SCHBTk89pM5uPsMTtURv-75" value="results: ref" style="rounded=0;whiteSpace=wrap;html=1;strokeColor=#006600;" parent="1" vertex="1">
                    <mxGeometry x="290" y="640" width="170" height="30" as="geometry"/>
                </mxCell>
                <mxCell id="SCHBTk89pM5uPsMTtURv-76" value="(PK) id: int" style="rounded=0;whiteSpace=wrap;html=1;strokeColor=#FF66FF;" parent="1" vertex="1">
                    <mxGeometry x="290" y="399.99999999999994" width="170" height="30" as="geometry"/>
                </mxCell>
                <mxCell id="SCHBTk89pM5uPsMTtURv-78" value="(FK) current_action_id: int" style="rounded=0;whiteSpace=wrap;html=1;strokeColor=#FF66FF;" parent="1" vertex="1">
                    <mxGeometry x="290" y="600" width="170" height="30" as="geometry"/>
                </mxCell>
                <mxCell id="SCHBTk89pM5uPsMTtURv-81" value="(PK) id: int" style="rounded=0;whiteSpace=wrap;html=1;strokeColor=#FF66FF;" parent="1" vertex="1">
                    <mxGeometry x="540" y="140" width="170" height="30" as="geometry"/>
                </mxCell>
                <mxCell id="SCHBTk89pM5uPsMTtURv-82" value="(FK) user_id: int" style="rounded=0;whiteSpace=wrap;html=1;" parent="1" vertex="1">
                    <mxGeometry x="540" y="220" width="170" height="30" as="geometry"/>
                </mxCell>
                <mxCell id="SCHBTk89pM5uPsMTtURv-83" value="(FK) room_id: int" style="rounded=0;whiteSpace=wrap;html=1;strokeColor=#FFFFFF;" parent="1" vertex="1">
                    <mxGeometry x="540" y="180" width="170" height="30" as="geometry"/>
                </mxCell>
                <mxCell id="SCHBTk89pM5uPsMTtURv-84" value="bans: str[]" style="rounded=0;whiteSpace=wrap;html=1;strokeColor=#FFFF66;" parent="1" vertex="1">
                    <mxGeometry x="540" y="260" width="170" height="30" as="geometry"/>
                </mxCell>
                <mxCell id="SCHBTk89pM5uPsMTtURv-85" value="picks: str[]" style="rounded=0;whiteSpace=wrap;html=1;strokeColor=#FFFF66;" parent="1" vertex="1">
                    <mxGeometry x="540" y="300" width="170" height="30" as="geometry"/>
                </mxCell>
                <mxCell id="SCHBTk89pM5uPsMTtURv-86" value="(FK) team_id: int" style="rounded=0;whiteSpace=wrap;html=1;strokeColor=#FF66FF;" parent="1" vertex="1">
                    <mxGeometry x="540" y="340" width="170" height="30" as="geometry"/>
                </mxCell>
                <mxCell id="SCHBTk89pM5uPsMTtURv-87" value="(PK) id: int" style="rounded=0;whiteSpace=wrap;html=1;strokeColor=#FF66FF;" parent="1" vertex="1">
                    <mxGeometry x="290" y="190" width="170" height="30" as="geometry"/>
                </mxCell>
                <mxCell id="SCHBTk89pM5uPsMTtURv-88" value="(PK) id: int" style="rounded=0;whiteSpace=wrap;html=1;strokeColor=#FF66FF;" parent="1" vertex="1">
                    <mxGeometry x="39.99999999999994" y="109.99999999999994" width="170" height="30" as="geometry"/>
                </mxCell>
                <mxCell id="vuVQOKLUfzYMfMgCxyHa-2" style="rounded=0;orthogonalLoop=1;jettySize=auto;html=1;fontColor=#FFFFFF;endArrow=classic;endFill=1;strokeColor=#FFFFFF;" parent="1" source="vuVQOKLUfzYMfMgCxyHa-1" edge="1">
                    <mxGeometry relative="1" as="geometry">
                        <mxPoint x="750" y="-520" as="targetPoint"/>
                    </mxGeometry>
                </mxCell>
                <mxCell id="vuVQOKLUfzYMfMgCxyHa-1" value="" style="rounded=1;whiteSpace=wrap;html=1;fontColor=#FFFFFF;strokeColor=#666666;fillColor=#FFFFFF;" parent="1" vertex="1">
                    <mxGeometry x="640" y="-410" width="220" height="10" as="geometry"/>
                </mxCell>
                <mxCell id="iZ-Pagh186xZD2X_np8o-1" value="add end action" style="text;html=1;strokeColor=none;fillColor=none;align=center;verticalAlign=middle;whiteSpace=wrap;rounded=0;" parent="1" vertex="1">
                    <mxGeometry x="460" y="600" width="120" height="30" as="geometry"/>
                </mxCell>
            </root>
        </mxGraphModel>
    </diagram>
    <diagram id="ufQtc_7gJPJQI9lAsnQL" name="Create_Form">
        <mxGraphModel dx="1169" dy="534" grid="1" gridSize="10" guides="1" tooltips="1" connect="1" arrows="1" fold="1" page="1" pageScale="1" pageWidth="1169" pageHeight="827" math="0" shadow="0">
            <root>
                <mxCell id="CWQJvBQlIry-YsTT9sQo-0"/>
                <mxCell id="CWQJvBQlIry-YsTT9sQo-1" parent="CWQJvBQlIry-YsTT9sQo-0"/>
                <mxCell id="CWQJvBQlIry-YsTT9sQo-2" value="" style="rounded=0;whiteSpace=wrap;html=1;" parent="CWQJvBQlIry-YsTT9sQo-1" vertex="1">
                    <mxGeometry x="359" y="113" width="450" height="602" as="geometry"/>
                </mxCell>
                <mxCell id="CWQJvBQlIry-YsTT9sQo-3" value="" style="rounded=1;whiteSpace=wrap;html=1;align=left;" parent="CWQJvBQlIry-YsTT9sQo-1" vertex="1">
                    <mxGeometry x="424" y="252" width="320" height="40" as="geometry"/>
                </mxCell>
                <mxCell id="CWQJvBQlIry-YsTT9sQo-6" value="" style="rounded=1;whiteSpace=wrap;html=1;align=left;" parent="CWQJvBQlIry-YsTT9sQo-1" vertex="1">
                    <mxGeometry x="424" y="525" width="320" height="40" as="geometry"/>
                </mxCell>
                <mxCell id="CWQJvBQlIry-YsTT9sQo-7" value="Create match" style="text;html=1;strokeColor=none;fillColor=none;align=left;verticalAlign=middle;whiteSpace=wrap;rounded=0;fontSize=32;fontStyle=1" parent="CWQJvBQlIry-YsTT9sQo-1" vertex="1">
                    <mxGeometry x="424" y="142" width="215" height="60" as="geometry"/>
                </mxCell>
                <mxCell id="CWQJvBQlIry-YsTT9sQo-8" value="Game mode" style="text;html=1;strokeColor=none;fillColor=none;align=left;verticalAlign=middle;whiteSpace=wrap;rounded=0;fontSize=18;" parent="CWQJvBQlIry-YsTT9sQo-1" vertex="1">
                    <mxGeometry x="424" y="222" width="115" height="30" as="geometry"/>
                </mxCell>
                <mxCell id="CWQJvBQlIry-YsTT9sQo-10" value="Seed" style="text;html=1;strokeColor=none;fillColor=none;align=left;verticalAlign=middle;whiteSpace=wrap;rounded=0;fontSize=18;" parent="CWQJvBQlIry-YsTT9sQo-1" vertex="1">
                    <mxGeometry x="424" y="495" width="115" height="30" as="geometry"/>
                </mxCell>
                <mxCell id="CWQJvBQlIry-YsTT9sQo-11" value="Submit" style="rounded=1;whiteSpace=wrap;html=1;fontSize=18;fillColor=#0050ef;fontColor=#ffffff;strokeColor=#001DBC;" parent="CWQJvBQlIry-YsTT9sQo-1" vertex="1">
                    <mxGeometry x="639" y="595" width="105" height="40" as="geometry"/>
                </mxCell>
                <mxCell id="CWQJvBQlIry-YsTT9sQo-13" value="" style="endArrow=none;html=1;rounded=0;fontSize=18;entryX=0.895;entryY=0.012;entryDx=0;entryDy=0;entryPerimeter=0;exitX=0.895;exitY=1.012;exitDx=0;exitDy=0;exitPerimeter=0;" parent="CWQJvBQlIry-YsTT9sQo-1" edge="1">
                    <mxGeometry width="50" height="50" relative="1" as="geometry">
                        <mxPoint x="708.9999999999999" y="565" as="sourcePoint"/>
                        <mxPoint x="708.9999999999999" y="525" as="targetPoint"/>
                    </mxGeometry>
                </mxCell>
                <mxCell id="CWQJvBQlIry-YsTT9sQo-14" value="" style="endArrow=none;html=1;rounded=0;fontSize=18;entryX=0.895;entryY=0.012;entryDx=0;entryDy=0;entryPerimeter=0;exitX=0.895;exitY=1.012;exitDx=0;exitDy=0;exitPerimeter=0;" parent="CWQJvBQlIry-YsTT9sQo-1" edge="1">
                    <mxGeometry width="50" height="50" relative="1" as="geometry">
                        <mxPoint x="708.9999999999999" y="292" as="sourcePoint"/>
                        <mxPoint x="708.9999999999999" y="252" as="targetPoint"/>
                    </mxGeometry>
                </mxCell>
                <mxCell id="CWQJvBQlIry-YsTT9sQo-17" value="" style="html=1;shadow=0;dashed=0;align=center;verticalAlign=middle;shape=mxgraph.arrows2.arrow;dy=0;dx=6.84;notch=5.16;rounded=1;fontSize=18;direction=south;" parent="CWQJvBQlIry-YsTT9sQo-1" vertex="1">
                    <mxGeometry x="719" y="266" width="15" height="12" as="geometry"/>
                </mxCell>
                <mxCell id="CWQJvBQlIry-YsTT9sQo-18" value="" style="html=1;shadow=0;dashed=0;align=center;verticalAlign=middle;shape=mxgraph.arrows2.arrow;dy=0;dx=6.84;notch=5.16;rounded=1;fontSize=18;direction=south;" parent="CWQJvBQlIry-YsTT9sQo-1" vertex="1">
                    <mxGeometry x="719" y="539" width="15" height="12" as="geometry"/>
                </mxCell>
                <mxCell id="gGtInlzJsniyq_9l1pRI-0" value="" style="rounded=1;whiteSpace=wrap;html=1;align=left;" parent="CWQJvBQlIry-YsTT9sQo-1" vertex="1">
                    <mxGeometry x="424" y="435" width="320" height="40" as="geometry"/>
                </mxCell>
                <mxCell id="gGtInlzJsniyq_9l1pRI-1" value="Nickname" style="text;html=1;strokeColor=none;fillColor=none;align=left;verticalAlign=middle;whiteSpace=wrap;rounded=0;fontSize=18;" parent="CWQJvBQlIry-YsTT9sQo-1" vertex="1">
                    <mxGeometry x="424" y="405" width="115" height="30" as="geometry"/>
                </mxCell>
                <mxCell id="iGA6i5vbuYgvUGOjJ3Lz-0" value="" style="rounded=1;whiteSpace=wrap;html=1;align=left;" parent="CWQJvBQlIry-YsTT9sQo-1" vertex="1">
                    <mxGeometry x="424" y="345" width="320" height="40" as="geometry"/>
                </mxCell>
                <mxCell id="iGA6i5vbuYgvUGOjJ3Lz-1" value="Game type" style="text;html=1;strokeColor=none;fillColor=none;align=left;verticalAlign=middle;whiteSpace=wrap;rounded=0;fontSize=18;" parent="CWQJvBQlIry-YsTT9sQo-1" vertex="1">
                    <mxGeometry x="424" y="315" width="115" height="30" as="geometry"/>
                </mxCell>
                <mxCell id="iGA6i5vbuYgvUGOjJ3Lz-2" value="" style="endArrow=none;html=1;rounded=0;fontSize=18;entryX=0.895;entryY=0.012;entryDx=0;entryDy=0;entryPerimeter=0;exitX=0.895;exitY=1.012;exitDx=0;exitDy=0;exitPerimeter=0;" parent="CWQJvBQlIry-YsTT9sQo-1" edge="1">
                    <mxGeometry width="50" height="50" relative="1" as="geometry">
                        <mxPoint x="709" y="385" as="sourcePoint"/>
                        <mxPoint x="709" y="345" as="targetPoint"/>
                    </mxGeometry>
                </mxCell>
                <mxCell id="iGA6i5vbuYgvUGOjJ3Lz-3" value="" style="html=1;shadow=0;dashed=0;align=center;verticalAlign=middle;shape=mxgraph.arrows2.arrow;dy=0;dx=6.84;notch=5.16;rounded=1;fontSize=18;direction=south;" parent="CWQJvBQlIry-YsTT9sQo-1" vertex="1">
                    <mxGeometry x="719" y="359" width="15" height="12" as="geometry"/>
                </mxCell>
                <mxCell id="aXeuGlvFgHW7bq5NE7p0-0" value="" style="whiteSpace=wrap;html=1;aspect=fixed;rounded=1;fontSize=18;" parent="CWQJvBQlIry-YsTT9sQo-1" vertex="1">
                    <mxGeometry x="424" y="600" width="30" height="30" as="geometry"/>
                </mxCell>
                <mxCell id="aXeuGlvFgHW7bq5NE7p0-1" value="Persistent" style="text;html=1;strokeColor=none;fillColor=none;align=left;verticalAlign=middle;whiteSpace=wrap;rounded=0;fontSize=18;" parent="CWQJvBQlIry-YsTT9sQo-1" vertex="1">
                    <mxGeometry x="464" y="600" width="90" height="30" as="geometry"/>
                </mxCell>
            </root>
        </mxGraphModel>
    </diagram>
    <diagram id="jUi-HBTkY0YkqytoPo9C" name="Login_Form">
        <mxGraphModel dx="1169" dy="534" grid="1" gridSize="10" guides="1" tooltips="1" connect="1" arrows="1" fold="1" page="1" pageScale="1" pageWidth="1169" pageHeight="827" math="0" shadow="0">
            <root>
                <mxCell id="tsDcRPBl0Zxdk9UHipRP-0"/>
                <mxCell id="tsDcRPBl0Zxdk9UHipRP-1" parent="tsDcRPBl0Zxdk9UHipRP-0"/>
                <mxCell id="IeOFXZDn9EDLRQ92q2k4-0" value="" style="rounded=0;whiteSpace=wrap;html=1;" parent="tsDcRPBl0Zxdk9UHipRP-1" vertex="1">
                    <mxGeometry x="360" y="265" width="450" height="365" as="geometry"/>
                </mxCell>
                <mxCell id="IeOFXZDn9EDLRQ92q2k4-1" value="Login" style="text;html=1;strokeColor=none;fillColor=none;align=left;verticalAlign=middle;whiteSpace=wrap;rounded=0;fontSize=32;fontStyle=1" parent="tsDcRPBl0Zxdk9UHipRP-1" vertex="1">
                    <mxGeometry x="425" y="294" width="215" height="60" as="geometry"/>
                </mxCell>
                <mxCell id="1sd6uDTcOkDnHl3TMdKk-0" value="" style="rounded=1;whiteSpace=wrap;html=1;align=left;" parent="tsDcRPBl0Zxdk9UHipRP-1" vertex="1">
                    <mxGeometry x="425" y="412" width="320" height="40" as="geometry"/>
                </mxCell>
                <mxCell id="1sd6uDTcOkDnHl3TMdKk-1" value="Nickname" style="text;html=1;strokeColor=none;fillColor=none;align=left;verticalAlign=middle;whiteSpace=wrap;rounded=0;fontSize=18;" parent="tsDcRPBl0Zxdk9UHipRP-1" vertex="1">
                    <mxGeometry x="425" y="382" width="115" height="30" as="geometry"/>
                </mxCell>
                <mxCell id="fA-MBqBtNBN6_L8eWI01-0" value="Submit" style="rounded=1;whiteSpace=wrap;html=1;fontSize=18;fillColor=#0050ef;fontColor=#ffffff;strokeColor=#001DBC;" parent="tsDcRPBl0Zxdk9UHipRP-1" vertex="1">
                    <mxGeometry x="640" y="540" width="105" height="40" as="geometry"/>
                </mxCell>
                <mxCell id="e5q3eCg3VlNo0NyXU4R_-0" value="Login as spectator" style="rounded=1;whiteSpace=wrap;html=1;fontSize=18;fillColor=#647687;fontColor=#ffffff;strokeColor=#314354;" parent="tsDcRPBl0Zxdk9UHipRP-1" vertex="1">
                    <mxGeometry x="425" y="540" width="165" height="40" as="geometry"/>
                </mxCell>
                <mxCell id="NnIlLyZXou2qh16YG3jK-0" value="" style="whiteSpace=wrap;html=1;aspect=fixed;rounded=1;fontSize=18;" parent="tsDcRPBl0Zxdk9UHipRP-1" vertex="1">
                    <mxGeometry x="425" y="480" width="30" height="30" as="geometry"/>
                </mxCell>
                <mxCell id="NnIlLyZXou2qh16YG3jK-1" value="Persistent" style="text;html=1;strokeColor=none;fillColor=none;align=left;verticalAlign=middle;whiteSpace=wrap;rounded=0;fontSize=18;" parent="tsDcRPBl0Zxdk9UHipRP-1" vertex="1">
                    <mxGeometry x="465" y="480" width="90" height="30" as="geometry"/>
                </mxCell>
            </root>
        </mxGraphModel>
    </diagram>
    <diagram id="gibM_wUdUpck2vU8V6y8" name="Login_Room_Logic">
        <mxGraphModel dx="1169" dy="534" grid="1" gridSize="10" guides="1" tooltips="1" connect="1" arrows="1" fold="1" page="1" pageScale="1" pageWidth="827" pageHeight="1169" math="0" shadow="0">
            <root>
                <mxCell id="s_jan6Ek-Sy-BKqKLDZv-0"/>
                <mxCell id="s_jan6Ek-Sy-BKqKLDZv-1" parent="s_jan6Ek-Sy-BKqKLDZv-0"/>
                <mxCell id="Z6E7ZYbQbKLmZq7J2g4Y-0" value="&lt;font style=&quot;font-size: 24px&quot;&gt;Login Room Logic&lt;/font&gt;" style="text;html=1;strokeColor=none;fillColor=none;align=left;verticalAlign=middle;whiteSpace=wrap;rounded=0;" parent="s_jan6Ek-Sy-BKqKLDZv-1" vertex="1">
                    <mxGeometry x="40" y="40" width="760" height="40" as="geometry"/>
                </mxCell>
                <mxCell id="Z6E7ZYbQbKLmZq7J2g4Y-1" value="" style="endArrow=none;html=1;rounded=0;fontSize=24;exitX=0;exitY=1;exitDx=0;exitDy=0;" parent="s_jan6Ek-Sy-BKqKLDZv-1" source="Z6E7ZYbQbKLmZq7J2g4Y-0" edge="1">
                    <mxGeometry width="50" height="50" relative="1" as="geometry">
                        <mxPoint x="782" y="-80" as="sourcePoint"/>
                        <mxPoint x="800" y="80" as="targetPoint"/>
                    </mxGeometry>
                </mxCell>
                <mxCell id="zyl1Be5SeVofuEadeDgi-0" value="nickname&lt;br&gt;is_persistent" style="strokeWidth=2;html=1;shape=mxgraph.flowchart.annotation_1;align=left;pointerEvents=1;strokeColor=#8381A3;" parent="s_jan6Ek-Sy-BKqKLDZv-1" vertex="1">
                    <mxGeometry x="541.5" y="242.5" width="50" height="35" as="geometry"/>
                </mxCell>
                <mxCell id="zyl1Be5SeVofuEadeDgi-1" style="edgeStyle=orthogonalEdgeStyle;rounded=0;orthogonalLoop=1;jettySize=auto;html=1;endArrow=classic;endFill=1;strokeColor=#8381A3;" parent="s_jan6Ek-Sy-BKqKLDZv-1" source="zyl1Be5SeVofuEadeDgi-2" target="zyl1Be5SeVofuEadeDgi-16" edge="1">
                    <mxGeometry relative="1" as="geometry"/>
                </mxCell>
                <mxCell id="zyl1Be5SeVofuEadeDgi-2" value="users" style="strokeWidth=2;html=1;shape=mxgraph.flowchart.database;whiteSpace=wrap;strokeColor=#8381A3;" parent="s_jan6Ek-Sy-BKqKLDZv-1" vertex="1">
                    <mxGeometry x="375.5" y="440" width="60" height="60" as="geometry"/>
                </mxCell>
                <mxCell id="zyl1Be5SeVofuEadeDgi-3" style="edgeStyle=orthogonalEdgeStyle;rounded=0;orthogonalLoop=1;jettySize=auto;html=1;endArrow=classic;endFill=1;strokeColor=#8381A3;" parent="s_jan6Ek-Sy-BKqKLDZv-1" source="zyl1Be5SeVofuEadeDgi-6" target="zyl1Be5SeVofuEadeDgi-12" edge="1">
                    <mxGeometry relative="1" as="geometry"/>
                </mxCell>
                <mxCell id="zyl1Be5SeVofuEadeDgi-5" value="" style="edgeStyle=orthogonalEdgeStyle;rounded=0;orthogonalLoop=1;jettySize=auto;html=1;fontColor=#8381A3;endArrow=none;endFill=0;strokeColor=#8381A3;dashed=1;" parent="s_jan6Ek-Sy-BKqKLDZv-1" source="zyl1Be5SeVofuEadeDgi-6" target="zyl1Be5SeVofuEadeDgi-0" edge="1">
                    <mxGeometry relative="1" as="geometry"/>
                </mxCell>
                <mxCell id="Zb3T_qTH1a2dKmHF0iy8-0" style="edgeStyle=none;html=1;" edge="1" parent="s_jan6Ek-Sy-BKqKLDZv-1" source="zyl1Be5SeVofuEadeDgi-6" target="zyl1Be5SeVofuEadeDgi-8">
                    <mxGeometry relative="1" as="geometry"/>
                </mxCell>
                <mxCell id="zyl1Be5SeVofuEadeDgi-6" value="ввод данных формы" style="html=1;strokeWidth=2;shape=manualInput;whiteSpace=wrap;rounded=1;size=26;arcSize=11;strokeColor=#8381A3;" parent="s_jan6Ek-Sy-BKqKLDZv-1" vertex="1">
                    <mxGeometry x="355.5" y="90" width="100" height="60" as="geometry"/>
                </mxCell>
                <mxCell id="zyl1Be5SeVofuEadeDgi-7" style="edgeStyle=orthogonalEdgeStyle;rounded=0;orthogonalLoop=1;jettySize=auto;html=1;fontColor=#8381A3;endArrow=classic;endFill=1;strokeColor=#8381A3;" parent="s_jan6Ek-Sy-BKqKLDZv-1" source="zyl1Be5SeVofuEadeDgi-8" target="zyl1Be5SeVofuEadeDgi-6" edge="1">
                    <mxGeometry relative="1" as="geometry"/>
                </mxCell>
                <mxCell id="zyl1Be5SeVofuEadeDgi-8" value="/room_uuid" style="strokeWidth=2;html=1;shape=mxgraph.flowchart.start_1;whiteSpace=wrap;strokeColor=#8381A3;" parent="s_jan6Ek-Sy-BKqKLDZv-1" vertex="1">
                    <mxGeometry x="355.5" y="242.5" width="100" height="60" as="geometry"/>
                </mxCell>
                <mxCell id="zyl1Be5SeVofuEadeDgi-11" style="edgeStyle=orthogonalEdgeStyle;rounded=0;orthogonalLoop=1;jettySize=auto;html=1;endArrow=classic;endFill=1;strokeColor=#8381A3;" parent="s_jan6Ek-Sy-BKqKLDZv-1" source="zyl1Be5SeVofuEadeDgi-12" target="zyl1Be5SeVofuEadeDgi-2" edge="1">
                    <mxGeometry relative="1" as="geometry"/>
                </mxCell>
                <mxCell id="zyl1Be5SeVofuEadeDgi-12" value="nickname&lt;br&gt;is_persistent" style="shape=parallelogram;html=1;strokeWidth=2;perimeter=parallelogramPerimeter;whiteSpace=wrap;rounded=1;arcSize=12;size=0.23;strokeColor=#8381A3;" parent="s_jan6Ek-Sy-BKqKLDZv-1" vertex="1">
                    <mxGeometry x="355.5" y="350" width="100" height="60" as="geometry"/>
                </mxCell>
                <mxCell id="zyl1Be5SeVofuEadeDgi-15" style="edgeStyle=orthogonalEdgeStyle;rounded=0;orthogonalLoop=1;jettySize=auto;html=1;fontColor=#8381A3;endArrow=classic;endFill=1;strokeColor=#8381A3;" parent="s_jan6Ek-Sy-BKqKLDZv-1" source="zyl1Be5SeVofuEadeDgi-16" target="zyl1Be5SeVofuEadeDgi-18" edge="1">
                    <mxGeometry relative="1" as="geometry"/>
                </mxCell>
                <mxCell id="zyl1Be5SeVofuEadeDgi-16" value="get user_id&lt;br&gt;get room_id" style="rounded=1;whiteSpace=wrap;html=1;absoluteArcSize=1;arcSize=14;strokeWidth=2;strokeColor=#8381A3;" parent="s_jan6Ek-Sy-BKqKLDZv-1" vertex="1">
                    <mxGeometry x="355.5" y="550" width="100" height="100" as="geometry"/>
                </mxCell>
                <mxCell id="zyl1Be5SeVofuEadeDgi-17" style="edgeStyle=orthogonalEdgeStyle;rounded=0;orthogonalLoop=1;jettySize=auto;html=1;fontColor=#8381A3;endArrow=classic;endFill=1;strokeColor=#8381A3;" parent="s_jan6Ek-Sy-BKqKLDZv-1" source="zyl1Be5SeVofuEadeDgi-18" target="zyl1Be5SeVofuEadeDgi-20" edge="1">
                    <mxGeometry relative="1" as="geometry"/>
                </mxCell>
                <mxCell id="zyl1Be5SeVofuEadeDgi-18" value="user_id&lt;br&gt;room_id" style="shape=parallelogram;html=1;strokeWidth=2;perimeter=parallelogramPerimeter;whiteSpace=wrap;rounded=1;arcSize=12;size=0.23;strokeColor=#8381A3;" parent="s_jan6Ek-Sy-BKqKLDZv-1" vertex="1">
                    <mxGeometry x="355.5" y="690" width="100" height="60" as="geometry"/>
                </mxCell>
                <mxCell id="zyl1Be5SeVofuEadeDgi-19" style="edgeStyle=orthogonalEdgeStyle;rounded=0;orthogonalLoop=1;jettySize=auto;html=1;fontColor=#8381A3;endArrow=classic;endFill=1;strokeColor=#8381A3;" parent="s_jan6Ek-Sy-BKqKLDZv-1" source="zyl1Be5SeVofuEadeDgi-20" target="zyl1Be5SeVofuEadeDgi-21" edge="1">
                    <mxGeometry relative="1" as="geometry"/>
                </mxCell>
                <mxCell id="zyl1Be5SeVofuEadeDgi-20" value="results" style="strokeWidth=2;html=1;shape=mxgraph.flowchart.database;whiteSpace=wrap;strokeColor=#8381A3;" parent="s_jan6Ek-Sy-BKqKLDZv-1" vertex="1">
                    <mxGeometry x="375.5" y="780" width="60" height="60" as="geometry"/>
                </mxCell>
                <mxCell id="zyl1Be5SeVofuEadeDgi-21" value="/room_uuid/nickname" style="strokeWidth=2;html=1;shape=mxgraph.flowchart.terminator;whiteSpace=wrap;fontColor=#FFFFFF;strokeColor=#8381A3;" parent="s_jan6Ek-Sy-BKqKLDZv-1" vertex="1">
                    <mxGeometry x="338.25" y="880" width="134.5" height="60" as="geometry"/>
                </mxCell>
                <mxCell id="zyl1Be5SeVofuEadeDgi-22" style="edgeStyle=orthogonalEdgeStyle;rounded=0;orthogonalLoop=1;jettySize=auto;html=1;fontColor=#FFFFFF;endArrow=none;endFill=0;strokeColor=#8381A3;dashed=1;" parent="s_jan6Ek-Sy-BKqKLDZv-1" source="zyl1Be5SeVofuEadeDgi-23" target="zyl1Be5SeVofuEadeDgi-2" edge="1">
                    <mxGeometry relative="1" as="geometry"/>
                </mxCell>
                <mxCell id="zyl1Be5SeVofuEadeDgi-23" value="добавляем строку в таблицу:&lt;br&gt;&lt;span style=&quot;white-space: pre&quot;&gt;&#9;&lt;/span&gt;users" style="strokeWidth=2;html=1;shape=mxgraph.flowchart.annotation_1;align=left;pointerEvents=1;strokeColor=#8381A3;" parent="s_jan6Ek-Sy-BKqKLDZv-1" vertex="1">
                    <mxGeometry x="541.5" y="452.5" width="50" height="35" as="geometry"/>
                </mxCell>
                <mxCell id="zyl1Be5SeVofuEadeDgi-24" style="edgeStyle=orthogonalEdgeStyle;rounded=0;orthogonalLoop=1;jettySize=auto;html=1;dashed=1;fontColor=#FFFFFF;endArrow=none;endFill=0;strokeColor=#8381A3;" parent="s_jan6Ek-Sy-BKqKLDZv-1" source="zyl1Be5SeVofuEadeDgi-25" target="zyl1Be5SeVofuEadeDgi-16" edge="1">
                    <mxGeometry relative="1" as="geometry"/>
                </mxCell>
                <mxCell id="zyl1Be5SeVofuEadeDgi-25" value="SELECT id FROM users ??????????&lt;br&gt;SELECT id FROM rooms ?????????&lt;br&gt;как выбрать именно только что&lt;br&gt;созданного пользователя&lt;br&gt;и комнату" style="strokeWidth=2;html=1;shape=mxgraph.flowchart.annotation_1;align=left;pointerEvents=1;strokeColor=#FF3333;" parent="s_jan6Ek-Sy-BKqKLDZv-1" vertex="1">
                    <mxGeometry x="541.5" y="560" width="50" height="80" as="geometry"/>
                </mxCell>
                <mxCell id="zyl1Be5SeVofuEadeDgi-26" style="edgeStyle=orthogonalEdgeStyle;rounded=0;orthogonalLoop=1;jettySize=auto;html=1;dashed=1;fontColor=#FFFFFF;endArrow=none;endFill=0;strokeColor=#8381A3;" parent="s_jan6Ek-Sy-BKqKLDZv-1" source="zyl1Be5SeVofuEadeDgi-27" target="zyl1Be5SeVofuEadeDgi-20" edge="1">
                    <mxGeometry relative="1" as="geometry"/>
                </mxCell>
                <mxCell id="zyl1Be5SeVofuEadeDgi-27" value="добавляем строку в таблицу:&lt;br&gt;&lt;span style=&quot;white-space: pre&quot;&gt;&#9;&lt;/span&gt;results" style="strokeWidth=2;html=1;shape=mxgraph.flowchart.annotation_1;align=left;pointerEvents=1;strokeColor=#8381A3;" parent="s_jan6Ek-Sy-BKqKLDZv-1" vertex="1">
                    <mxGeometry x="541.5" y="790" width="50" height="40" as="geometry"/>
                </mxCell>
                <mxCell id="zyl1Be5SeVofuEadeDgi-28" style="edgeStyle=orthogonalEdgeStyle;rounded=0;orthogonalLoop=1;jettySize=auto;html=1;dashed=1;fontColor=#FFFFFF;endArrow=none;endFill=0;strokeColor=#8381A3;" parent="s_jan6Ek-Sy-BKqKLDZv-1" source="zyl1Be5SeVofuEadeDgi-29" target="zyl1Be5SeVofuEadeDgi-21" edge="1">
                    <mxGeometry relative="1" as="geometry"/>
                </mxCell>
                <mxCell id="zyl1Be5SeVofuEadeDgi-29" value="перенаправляем пользователя&lt;br&gt;в созданную комнату" style="strokeWidth=2;html=1;shape=mxgraph.flowchart.annotation_1;align=left;pointerEvents=1;strokeColor=#8381A3;" parent="s_jan6Ek-Sy-BKqKLDZv-1" vertex="1">
                    <mxGeometry x="541.5" y="890" width="50" height="40" as="geometry"/>
                </mxCell>
            </root>
        </mxGraphModel>
    </diagram>
    <diagram id="ij55TFFyDcieBGQi1KwD" name="Create_Room_Logic">
        <mxGraphModel dx="1169" dy="534" grid="1" gridSize="10" guides="1" tooltips="1" connect="1" arrows="1" fold="1" page="1" pageScale="1" pageWidth="827" pageHeight="1169" math="0" shadow="0">
            <root>
                <mxCell id="vilvUI4rjIHYaDoENBrj-0"/>
                <mxCell id="vilvUI4rjIHYaDoENBrj-1" parent="vilvUI4rjIHYaDoENBrj-0"/>
                <mxCell id="vilvUI4rjIHYaDoENBrj-9" value="game_mode&lt;br&gt;game_type&lt;br&gt;nickname&lt;br&gt;seed&lt;br&gt;is_persistent" style="strokeWidth=2;html=1;shape=mxgraph.flowchart.annotation_1;align=left;pointerEvents=1;strokeColor=#8381A3;" parent="vilvUI4rjIHYaDoENBrj-1" vertex="1">
                    <mxGeometry x="541.5" y="220" width="50" height="80" as="geometry"/>
                </mxCell>
                <mxCell id="tySYgkHvU_ZAbH3mcuch-6" style="edgeStyle=orthogonalEdgeStyle;rounded=0;orthogonalLoop=1;jettySize=auto;html=1;endArrow=classic;endFill=1;strokeColor=#8381A3;" parent="vilvUI4rjIHYaDoENBrj-1" source="2vWVcLqhSieitY5xacXm-0" target="tySYgkHvU_ZAbH3mcuch-4" edge="1">
                    <mxGeometry relative="1" as="geometry"/>
                </mxCell>
                <mxCell id="2vWVcLqhSieitY5xacXm-0" value="users" style="strokeWidth=2;html=1;shape=mxgraph.flowchart.database;whiteSpace=wrap;strokeColor=#8381A3;" parent="vilvUI4rjIHYaDoENBrj-1" vertex="1">
                    <mxGeometry x="305" y="440" width="60" height="60" as="geometry"/>
                </mxCell>
                <mxCell id="2vWVcLqhSieitY5xacXm-8" style="edgeStyle=orthogonalEdgeStyle;rounded=0;orthogonalLoop=1;jettySize=auto;html=1;endArrow=classic;endFill=1;strokeColor=#8381A3;" parent="vilvUI4rjIHYaDoENBrj-1" source="2vWVcLqhSieitY5xacXm-1" target="2vWVcLqhSieitY5xacXm-6" edge="1">
                    <mxGeometry relative="1" as="geometry"/>
                </mxCell>
                <mxCell id="2vWVcLqhSieitY5xacXm-9" style="edgeStyle=orthogonalEdgeStyle;rounded=0;orthogonalLoop=1;jettySize=auto;html=1;endArrow=classic;endFill=1;strokeColor=#8381A3;" parent="vilvUI4rjIHYaDoENBrj-1" source="2vWVcLqhSieitY5xacXm-1" target="2vWVcLqhSieitY5xacXm-7" edge="1">
                    <mxGeometry relative="1" as="geometry"/>
                </mxCell>
                <mxCell id="Zeoj_Z817THGVBIgnF0W-2" value="" style="edgeStyle=orthogonalEdgeStyle;rounded=0;orthogonalLoop=1;jettySize=auto;html=1;fontColor=#8381A3;endArrow=none;endFill=0;strokeColor=#8381A3;dashed=1;" parent="vilvUI4rjIHYaDoENBrj-1" source="2vWVcLqhSieitY5xacXm-1" target="vilvUI4rjIHYaDoENBrj-9" edge="1">
                    <mxGeometry relative="1" as="geometry"/>
                </mxCell>
                <mxCell id="2vWVcLqhSieitY5xacXm-1" value="ввод данных формы" style="html=1;strokeWidth=2;shape=manualInput;whiteSpace=wrap;rounded=1;size=26;arcSize=11;strokeColor=#8381A3;" parent="vilvUI4rjIHYaDoENBrj-1" vertex="1">
                    <mxGeometry x="355.5" y="230" width="100" height="60" as="geometry"/>
                </mxCell>
                <mxCell id="Zeoj_Z817THGVBIgnF0W-4" style="edgeStyle=orthogonalEdgeStyle;rounded=0;orthogonalLoop=1;jettySize=auto;html=1;fontColor=#8381A3;endArrow=classic;endFill=1;strokeColor=#8381A3;" parent="vilvUI4rjIHYaDoENBrj-1" source="2vWVcLqhSieitY5xacXm-3" target="2vWVcLqhSieitY5xacXm-1" edge="1">
                    <mxGeometry relative="1" as="geometry"/>
                </mxCell>
                <mxCell id="2vWVcLqhSieitY5xacXm-3" value="/create" style="strokeWidth=2;html=1;shape=mxgraph.flowchart.start_1;whiteSpace=wrap;strokeColor=#8381A3;" parent="vilvUI4rjIHYaDoENBrj-1" vertex="1">
                    <mxGeometry x="355.5" y="150" width="100" height="60" as="geometry"/>
                </mxCell>
                <mxCell id="tySYgkHvU_ZAbH3mcuch-5" style="edgeStyle=orthogonalEdgeStyle;rounded=0;orthogonalLoop=1;jettySize=auto;html=1;endArrow=classic;endFill=1;strokeColor=#8381A3;" parent="vilvUI4rjIHYaDoENBrj-1" source="2vWVcLqhSieitY5xacXm-5" target="tySYgkHvU_ZAbH3mcuch-4" edge="1">
                    <mxGeometry relative="1" as="geometry"/>
                </mxCell>
                <mxCell id="2vWVcLqhSieitY5xacXm-5" value="rooms" style="strokeWidth=2;html=1;shape=mxgraph.flowchart.database;whiteSpace=wrap;strokeColor=#8381A3;" parent="vilvUI4rjIHYaDoENBrj-1" vertex="1">
                    <mxGeometry x="446" y="440" width="60" height="60" as="geometry"/>
                </mxCell>
                <mxCell id="2vWVcLqhSieitY5xacXm-12" style="edgeStyle=orthogonalEdgeStyle;rounded=0;orthogonalLoop=1;jettySize=auto;html=1;endArrow=classic;endFill=1;strokeColor=#8381A3;" parent="vilvUI4rjIHYaDoENBrj-1" source="2vWVcLqhSieitY5xacXm-6" target="2vWVcLqhSieitY5xacXm-0" edge="1">
                    <mxGeometry relative="1" as="geometry"/>
                </mxCell>
                <mxCell id="2vWVcLqhSieitY5xacXm-6" value="nickname&lt;br&gt;is_persistent" style="shape=parallelogram;html=1;strokeWidth=2;perimeter=parallelogramPerimeter;whiteSpace=wrap;rounded=1;arcSize=12;size=0.23;strokeColor=#8381A3;" parent="vilvUI4rjIHYaDoENBrj-1" vertex="1">
                    <mxGeometry x="285" y="350" width="100" height="60" as="geometry"/>
                </mxCell>
                <mxCell id="2vWVcLqhSieitY5xacXm-11" style="edgeStyle=orthogonalEdgeStyle;rounded=0;orthogonalLoop=1;jettySize=auto;html=1;endArrow=classic;endFill=1;strokeColor=#8381A3;" parent="vilvUI4rjIHYaDoENBrj-1" source="2vWVcLqhSieitY5xacXm-7" target="2vWVcLqhSieitY5xacXm-5" edge="1">
                    <mxGeometry relative="1" as="geometry"/>
                </mxCell>
                <mxCell id="2vWVcLqhSieitY5xacXm-7" value="game_mode&lt;br&gt;game_type&lt;br&gt;seed" style="shape=parallelogram;html=1;strokeWidth=2;perimeter=parallelogramPerimeter;whiteSpace=wrap;rounded=1;arcSize=12;size=0.23;strokeColor=#8381A3;" parent="vilvUI4rjIHYaDoENBrj-1" vertex="1">
                    <mxGeometry x="426" y="350" width="100" height="60" as="geometry"/>
                </mxCell>
                <mxCell id="Zeoj_Z817THGVBIgnF0W-5" style="edgeStyle=orthogonalEdgeStyle;rounded=0;orthogonalLoop=1;jettySize=auto;html=1;fontColor=#8381A3;endArrow=classic;endFill=1;strokeColor=#8381A3;" parent="vilvUI4rjIHYaDoENBrj-1" source="tySYgkHvU_ZAbH3mcuch-4" target="Zeoj_Z817THGVBIgnF0W-0" edge="1">
                    <mxGeometry relative="1" as="geometry"/>
                </mxCell>
                <mxCell id="tySYgkHvU_ZAbH3mcuch-4" value="get user_id&lt;br&gt;get room_id" style="rounded=1;whiteSpace=wrap;html=1;absoluteArcSize=1;arcSize=14;strokeWidth=2;strokeColor=#8381A3;" parent="vilvUI4rjIHYaDoENBrj-1" vertex="1">
                    <mxGeometry x="355.5" y="550" width="100" height="100" as="geometry"/>
                </mxCell>
                <mxCell id="Zeoj_Z817THGVBIgnF0W-6" style="edgeStyle=orthogonalEdgeStyle;rounded=0;orthogonalLoop=1;jettySize=auto;html=1;fontColor=#8381A3;endArrow=classic;endFill=1;strokeColor=#8381A3;" parent="vilvUI4rjIHYaDoENBrj-1" source="Zeoj_Z817THGVBIgnF0W-0" target="Zeoj_Z817THGVBIgnF0W-1" edge="1">
                    <mxGeometry relative="1" as="geometry"/>
                </mxCell>
                <mxCell id="Zeoj_Z817THGVBIgnF0W-0" value="user_id&lt;br&gt;room_id" style="shape=parallelogram;html=1;strokeWidth=2;perimeter=parallelogramPerimeter;whiteSpace=wrap;rounded=1;arcSize=12;size=0.23;strokeColor=#8381A3;" parent="vilvUI4rjIHYaDoENBrj-1" vertex="1">
                    <mxGeometry x="355.5" y="690" width="100" height="60" as="geometry"/>
                </mxCell>
                <mxCell id="nNrAtlT5_9kUTNMKgEbq-1" style="edgeStyle=orthogonalEdgeStyle;rounded=0;orthogonalLoop=1;jettySize=auto;html=1;fontColor=#8381A3;endArrow=classic;endFill=1;strokeColor=#8381A3;" parent="vilvUI4rjIHYaDoENBrj-1" source="Zeoj_Z817THGVBIgnF0W-1" edge="1">
                    <mxGeometry relative="1" as="geometry">
                        <mxPoint x="405.5833333333335" y="880" as="targetPoint"/>
                    </mxGeometry>
                </mxCell>
                <mxCell id="Zeoj_Z817THGVBIgnF0W-1" value="results" style="strokeWidth=2;html=1;shape=mxgraph.flowchart.database;whiteSpace=wrap;strokeColor=#8381A3;" parent="vilvUI4rjIHYaDoENBrj-1" vertex="1">
                    <mxGeometry x="375.5" y="780" width="60" height="60" as="geometry"/>
                </mxCell>
                <mxCell id="nNrAtlT5_9kUTNMKgEbq-4" style="edgeStyle=orthogonalEdgeStyle;rounded=0;orthogonalLoop=1;jettySize=auto;html=1;fontColor=#FFFFFF;endArrow=none;endFill=0;strokeColor=#8381A3;dashed=1;" parent="vilvUI4rjIHYaDoENBrj-1" source="nNrAtlT5_9kUTNMKgEbq-2" target="2vWVcLqhSieitY5xacXm-0" edge="1">
                    <mxGeometry relative="1" as="geometry"/>
                </mxCell>
                <mxCell id="nNrAtlT5_9kUTNMKgEbq-2" value="добавляем строки в таблицы:&lt;br&gt;&lt;span style=&quot;white-space: pre&quot;&gt;&#9;&lt;/span&gt;users&lt;br&gt;&lt;span style=&quot;white-space: pre&quot;&gt;&#9;&lt;/span&gt;rooms" style="strokeWidth=2;html=1;shape=mxgraph.flowchart.annotation_1;align=left;pointerEvents=1;strokeColor=#8381A3;" parent="vilvUI4rjIHYaDoENBrj-1" vertex="1">
                    <mxGeometry x="541.5" y="445" width="50" height="50" as="geometry"/>
                </mxCell>
                <mxCell id="nNrAtlT5_9kUTNMKgEbq-6" style="edgeStyle=orthogonalEdgeStyle;rounded=0;orthogonalLoop=1;jettySize=auto;html=1;dashed=1;fontColor=#FFFFFF;endArrow=none;endFill=0;strokeColor=#8381A3;" parent="vilvUI4rjIHYaDoENBrj-1" source="nNrAtlT5_9kUTNMKgEbq-5" target="tySYgkHvU_ZAbH3mcuch-4" edge="1">
                    <mxGeometry relative="1" as="geometry"/>
                </mxCell>
                <mxCell id="nNrAtlT5_9kUTNMKgEbq-5" value="SELECT id FROM users ??????????&lt;br&gt;SELECT id FROM rooms ?????????&lt;br&gt;как выбрать именно только что&lt;br&gt;созданного пользователя&lt;br&gt;и комнату" style="strokeWidth=2;html=1;shape=mxgraph.flowchart.annotation_1;align=left;pointerEvents=1;strokeColor=#FF3333;" parent="vilvUI4rjIHYaDoENBrj-1" vertex="1">
                    <mxGeometry x="541.5" y="560" width="50" height="80" as="geometry"/>
                </mxCell>
                <mxCell id="nNrAtlT5_9kUTNMKgEbq-8" style="edgeStyle=orthogonalEdgeStyle;rounded=0;orthogonalLoop=1;jettySize=auto;html=1;dashed=1;fontColor=#FFFFFF;endArrow=none;endFill=0;strokeColor=#8381A3;" parent="vilvUI4rjIHYaDoENBrj-1" source="nNrAtlT5_9kUTNMKgEbq-7" target="Zeoj_Z817THGVBIgnF0W-1" edge="1">
                    <mxGeometry relative="1" as="geometry"/>
                </mxCell>
                <mxCell id="nNrAtlT5_9kUTNMKgEbq-7" value="добавляем строку в таблицу:&lt;br&gt;&lt;span style=&quot;white-space: pre&quot;&gt;&#9;&lt;/span&gt;results" style="strokeWidth=2;html=1;shape=mxgraph.flowchart.annotation_1;align=left;pointerEvents=1;strokeColor=#8381A3;" parent="vilvUI4rjIHYaDoENBrj-1" vertex="1">
                    <mxGeometry x="541.5" y="790" width="50" height="40" as="geometry"/>
                </mxCell>
                <mxCell id="HQZLPiqbU63WxbBgY6Fw-2" style="edgeStyle=orthogonalEdgeStyle;rounded=0;orthogonalLoop=1;jettySize=auto;html=1;dashed=1;fontColor=#FFFFFF;endArrow=none;endFill=0;strokeColor=#8381A3;" parent="vilvUI4rjIHYaDoENBrj-1" source="HQZLPiqbU63WxbBgY6Fw-0" target="dBsnesFT2I8AorLb1X1X-0" edge="1">
                    <mxGeometry relative="1" as="geometry">
                        <mxPoint x="472.75" y="910" as="targetPoint"/>
                    </mxGeometry>
                </mxCell>
                <mxCell id="HQZLPiqbU63WxbBgY6Fw-0" value="перенаправляем пользователя&lt;br&gt;в созданную комнату&lt;br&gt;render_template(&quot;room&quot;)" style="strokeWidth=2;html=1;shape=mxgraph.flowchart.annotation_1;align=left;pointerEvents=1;strokeColor=#8381A3;" parent="vilvUI4rjIHYaDoENBrj-1" vertex="1">
                    <mxGeometry x="541.5" y="885" width="50" height="50" as="geometry"/>
                </mxCell>
                <mxCell id="Xl82IDK6Zb8etuHfzEcI-0" value="&lt;font style=&quot;font-size: 24px&quot;&gt;Create Room Logic&lt;/font&gt;" style="text;html=1;strokeColor=none;fillColor=none;align=left;verticalAlign=middle;whiteSpace=wrap;rounded=0;" parent="vilvUI4rjIHYaDoENBrj-1" vertex="1">
                    <mxGeometry x="40" y="40" width="760" height="40" as="geometry"/>
                </mxCell>
                <mxCell id="Xl82IDK6Zb8etuHfzEcI-1" value="" style="endArrow=none;html=1;rounded=0;fontSize=24;exitX=0;exitY=1;exitDx=0;exitDy=0;" parent="vilvUI4rjIHYaDoENBrj-1" source="Xl82IDK6Zb8etuHfzEcI-0" edge="1">
                    <mxGeometry width="50" height="50" relative="1" as="geometry">
                        <mxPoint x="782" y="-80" as="sourcePoint"/>
                        <mxPoint x="800" y="80" as="targetPoint"/>
                    </mxGeometry>
                </mxCell>
                <mxCell id="dBsnesFT2I8AorLb1X1X-0" value="/room_uuid/nickname" style="strokeWidth=2;html=1;shape=mxgraph.flowchart.start_1;whiteSpace=wrap;strokeColor=#8381A3;" parent="vilvUI4rjIHYaDoENBrj-1" vertex="1">
                    <mxGeometry x="322.5" y="880" width="166" height="60" as="geometry"/>
                </mxCell>
            </root>
        </mxGraphModel>
    </diagram>
    <diagram id="Gt8CtF71IfwCW3cT8ovy" name="Game_Logic">
        <mxGraphModel dx="1169" dy="534" grid="1" gridSize="10" guides="1" tooltips="1" connect="1" arrows="1" fold="1" page="1" pageScale="1" pageWidth="827" pageHeight="1169" math="0" shadow="0">
            <root>
                <mxCell id="QtKpcRpkp1dknMFz1jyd-0"/>
                <mxCell id="QtKpcRpkp1dknMFz1jyd-1" parent="QtKpcRpkp1dknMFz1jyd-0"/>
                <mxCell id="QtKpcRpkp1dknMFz1jyd-2" value="game()" style="strokeWidth=2;html=1;shape=mxgraph.flowchart.start_1;whiteSpace=wrap;" parent="QtKpcRpkp1dknMFz1jyd-1" vertex="1">
                    <mxGeometry x="584" y="45" width="100" height="60" as="geometry"/>
                </mxCell>
                <mxCell id="QtKpcRpkp1dknMFz1jyd-3" value="" style="verticalLabelPosition=bottom;verticalAlign=top;html=1;strokeWidth=2;shape=mxgraph.arrows2.arrow;dy=0.6;dx=40;notch=0;" parent="QtKpcRpkp1dknMFz1jyd-1" vertex="1">
                    <mxGeometry x="470" y="40" width="100" height="70" as="geometry"/>
                </mxCell>
                <mxCell id="QtKpcRpkp1dknMFz1jyd-4" value="params" style="text;html=1;strokeColor=none;fillColor=none;align=center;verticalAlign=middle;whiteSpace=wrap;rounded=0;" parent="QtKpcRpkp1dknMFz1jyd-1" vertex="1">
                    <mxGeometry x="470" y="60" width="60" height="30" as="geometry"/>
                </mxCell>
                <mxCell id="icx-x5O5I7LY-1_nz97b-0" value="Первоначальный &lt;b&gt;шаблон &lt;/b&gt;должен быть &lt;b&gt;в заблокированном состоянии&lt;/b&gt;, т.е. пользователь получив шаблон не должен иметь возможность взаимодействовать с картами и героями. Это связано с необходимостью &lt;b&gt;дождаться второго игрока&lt;/b&gt;.&lt;br&gt;Когда оба пользователя окажутся в комнате разрешить взаимодействовать с интерфейсом. Для этого на фронте должна быть функция которая проверяет все ли игроки в комнате. &lt;br&gt;&lt;span style=&quot;white-space: pre&quot;&gt;&#9;&lt;/span&gt;&lt;font color=&quot;#8381a3&quot;&gt;- Эта функция должна выполниться &lt;b&gt;1 раз и больше не вызываться&lt;/b&gt;.&lt;/font&gt;&lt;br&gt;Фронт отправляет запрос с проверкой:&lt;br&gt;&lt;span style=&quot;white-space: pre&quot;&gt;&#9;&lt;/span&gt;- checkPlayers()&lt;br&gt;&lt;span style=&quot;white-space: pre&quot;&gt;&#9;&lt;/span&gt;- room_id&lt;br&gt;&lt;br&gt;Бэк приняв этот запрос проверяет пользователей в таблице &lt;b&gt;results &lt;/b&gt;и отправляет &lt;b&gt;json &lt;/b&gt;ответ состояния true или &lt;b&gt;false&lt;/b&gt;:&lt;br&gt;&lt;span style=&quot;white-space: pre&quot;&gt;&#9;&lt;/span&gt;state: true&lt;br&gt;&lt;br&gt;Как только фронт получит положительный ответ блокировка взаимодействия снимается.&lt;br&gt;&lt;span style=&quot;white-space: pre&quot;&gt;&#9;&lt;/span&gt;&lt;br&gt;Для обновления содержимого при непосредственном выборе выполняется отправка данных о выборе пользователя.&lt;br&gt;Фронт отправляет текущее состояние параметрами:&lt;br&gt;&lt;span&gt;&#9;&lt;/span&gt;&lt;span style=&quot;white-space: pre&quot;&gt;&#9;&lt;/span&gt;- nextStep()&lt;br&gt;&lt;span&gt;&#9;&lt;/span&gt;&lt;span style=&quot;white-space: pre&quot;&gt;&#9;&lt;/span&gt;- room_id&lt;br&gt;&lt;span&gt;&#9;&lt;/span&gt;&lt;span style=&quot;white-space: pre&quot;&gt;&#9;&lt;/span&gt;- nickname&lt;br&gt;&lt;span&gt;&#9;&lt;/span&gt;&lt;span style=&quot;white-space: pre&quot;&gt;&#9;&lt;/span&gt;- action&lt;br&gt;&lt;span&gt;&#9;&lt;/span&gt;&lt;span style=&quot;white-space: pre&quot;&gt;&#9;&lt;/span&gt;- selected_object&lt;br&gt;&lt;br&gt;Бэк получив сообщение проверяет свое текущее состояние с полученными данными:&lt;br&gt;&lt;span&gt;&#9;&lt;/span&gt;&lt;span style=&quot;white-space: pre&quot;&gt;&#9;&lt;/span&gt;- в указанной комнате есть такой nickname?&lt;br&gt;&lt;span&gt;&#9;&lt;/span&gt;&lt;span style=&quot;white-space: pre&quot;&gt;&#9;&lt;/span&gt;- сейчас очередь указанного nickname?&lt;br&gt;&lt;span&gt;&#9;&lt;/span&gt;&lt;span style=&quot;white-space: pre&quot;&gt;&#9;&lt;/span&gt;- сейчас очередь указанного action?&lt;br&gt;&lt;br&gt;После удачной проверки готовим json в ответ:&lt;br&gt;&lt;span&gt;&#9;&lt;/span&gt;&lt;span style=&quot;white-space: pre&quot;&gt;&#9;&lt;/span&gt;next_action:&lt;br&gt;&lt;span&gt;&#9;&lt;/span&gt;&lt;span style=&quot;white-space: pre&quot;&gt;&#9;&lt;/span&gt;next_nickname:&lt;br&gt;&lt;span&gt;&#9;&lt;/span&gt;&lt;span style=&quot;white-space: pre&quot;&gt;&#9;&lt;/span&gt;players: [&lt;br&gt;&lt;span&gt;&lt;span&gt;&#9;&lt;/span&gt;&lt;span style=&quot;white-space: pre&quot;&gt;&#9;&lt;/span&gt;&amp;nbsp; 0:&lt;br&gt;&lt;/span&gt;&lt;span&gt;&#9;&lt;/span&gt;&lt;span style=&quot;white-space: pre&quot;&gt;&#9;&lt;/span&gt;&amp;nbsp; &amp;nbsp; nickname:&lt;br&gt;&lt;span&gt;&#9;&lt;/span&gt;&lt;span style=&quot;white-space: pre&quot;&gt;&#9;&lt;/span&gt;&amp;nbsp; &amp;nbsp; picks: []&lt;br&gt;&lt;span&gt;&lt;span&gt;&#9;&lt;/span&gt;&lt;span style=&quot;white-space: pre&quot;&gt;&#9;&lt;/span&gt;&amp;nbsp; 1:&lt;br&gt;&lt;/span&gt;&lt;span&gt;&#9;&lt;/span&gt;&lt;span style=&quot;white-space: pre&quot;&gt;&#9;&lt;/span&gt;&amp;nbsp; &amp;nbsp; nickname:&lt;br&gt;&lt;span&gt;&#9;&lt;/span&gt;&lt;span style=&quot;white-space: pre&quot;&gt;&#9;&lt;/span&gt;&amp;nbsp; &amp;nbsp; picks: []&lt;br&gt;&lt;span style=&quot;white-space: pre&quot;&gt;&#9;&lt;/span&gt;]&lt;br&gt;&lt;span style=&quot;white-space: pre&quot;&gt;&#9;&lt;/span&gt;available_maps: []&lt;br&gt;&lt;span style=&quot;white-space: pre&quot;&gt;&#9;&lt;/span&gt;available_champlions: []&lt;br&gt;&lt;br&gt;Фронт при получении успешного ответа должен быть в состоянии перестроить всю страницу целиком таким образом мы реализуем stateless подход при разработке." style="text;html=1;strokeColor=none;fillColor=none;align=left;verticalAlign=top;whiteSpace=wrap;rounded=0;" parent="QtKpcRpkp1dknMFz1jyd-1" vertex="1">
                    <mxGeometry width="460" height="1160" as="geometry"/>
                </mxCell>
            </root>
        </mxGraphModel>
    </diagram>
</mxfile>